<svg width="22" height="23" viewBox="0 0 22 23" fill="none" xmlns="http://www.w3.org/2000/svg">
<path d="M20.3715 0.015625H1.62422C0.72617 0.015625 0 0.724612 0 1.60117V20.4258C0 21.3023 0.72617 22.0156 1.62422 22.0156H20.3715C21.2695 22.0156 22 21.3024 22 20.4301V1.60117C22 0.724612 21.2695 0.015625 20.3715 0.015625ZM6.52694 18.7629H3.26133V8.26132H6.52694V18.7629ZM4.89413 6.83049C3.8457 6.83049 2.99922 5.984 2.99922 4.93982C2.99922 3.8957 3.8457 3.04922 4.89413 3.04922C5.9383 3.04922 6.78475 3.8957 6.78475 4.93982C6.78475 5.97969 5.9383 6.83049 4.89413 6.83049ZM18.7473 18.7629H15.4859V13.6582C15.4859 12.4422 15.4644 10.8738 13.7887 10.8738C12.0914 10.8738 11.8336 12.2016 11.8336 13.5723V18.7629H8.57656V8.26132H11.7047V9.6965H11.7476C12.1816 8.8715 13.2473 7.99924 14.8328 7.99924C18.1371 7.99924 18.7473 10.1734 18.7473 13.0008V18.7629Z" fill="black"/>
</svg>
