<svg width="22" height="22" viewBox="0 0 22 22" fill="none" xmlns="http://www.w3.org/2000/svg">
<path d="M21.7231 2.92894C20.9233 3.35781 20.0751 3.63924 19.2063 3.76367C20.1213 3.101 20.806 2.05816 21.1329 0.829584C20.2728 1.44762 19.3317 1.88282 18.3504 2.11633C17.9403 1.58692 17.4449 1.1651 16.8946 0.876994C16.3444 0.588875 15.7512 0.44062 15.1517 0.441409C12.7317 0.441409 10.7695 2.81611 10.7695 5.74618C10.7695 6.16155 10.8084 6.56687 10.8833 6.9554C7.24112 6.73413 4.01224 4.62201 1.85081 1.41218C1.46109 2.22178 1.25631 3.14232 1.25747 4.07931C1.2569 4.95273 1.43455 5.81279 1.77465 6.58302C2.11475 7.35337 2.60677 8.00996 3.20698 8.49465C2.51119 8.4679 1.83075 8.24038 1.22224 7.83118C1.22169 7.85329 1.22169 7.87506 1.22169 7.89799C1.22169 10.4674 2.73208 12.6114 4.73649 13.0994C4.09109 13.3108 3.41438 13.3418 2.7576 13.19C3.31516 15.297 4.93346 16.8313 6.85105 16.8743C5.29876 18.3489 3.38187 19.1488 1.40865 19.1452C1.05497 19.1452 0.706294 19.1204 0.363159 19.071C2.36685 20.6294 4.69886 21.4567 7.08047 21.4538C15.1409 21.4538 19.5487 13.3709 19.5487 6.36169C19.5487 6.13208 19.5442 5.90264 19.5359 5.67467C20.3942 4.9245 21.135 3.99463 21.7231 2.92894Z" fill="black"/>
</svg>
